<?xml version="1.0" encoding="UTF-8" ?>
<svg version="1.1" width="9600" height="9600" xmlns="http://www.w3.org/2000/svg" shape-rendering="crispEdges">
<rect x="300" y="300" width="300" height="300" fill="#000000" />
<rect x="600" y="300" width="300" height="300" fill="#000000" />
<rect x="900" y="300" width="300" height="300" fill="#000000" />
<rect x="1200" y="300" width="300" height="300" fill="#000000" />
<rect x="1500" y="300" width="300" height="300" fill="#000000" />
<rect x="2100" y="300" width="300" height="300" fill="#000000" />
<rect x="3600" y="300" width="300" height="300" fill="#000000" />
<rect x="3900" y="300" width="300" height="300" fill="#000000" />
<rect x="4200" y="300" width="300" height="300" fill="#000000" />
<rect x="4500" y="300" width="300" height="300" fill="#000000" />
<rect x="4800" y="300" width="300" height="300" fill="#000000" />
<rect x="6600" y="300" width="300" height="300" fill="#000000" />
<rect x="7800" y="300" width="300" height="300" fill="#000000" />
<rect x="8400" y="300" width="300" height="300" fill="#000000" />
<rect x="300" y="600" width="300" height="300" fill="#000000" />
<rect x="1500" y="600" width="300" height="300" fill="#000000" />
<rect x="2100" y="600" width="300" height="300" fill="#000000" />
<rect x="3600" y="600" width="300" height="300" fill="#000000" />
<rect x="4800" y="600" width="300" height="300" fill="#000000" />
<rect x="5700" y="600" width="300" height="300" fill="#000000" />
<rect x="6300" y="600" width="300" height="300" fill="#000000" />
<rect x="7800" y="600" width="300" height="300" fill="#000000" />
<rect x="8400" y="600" width="300" height="300" fill="#000000" />
<rect x="300" y="900" width="300" height="300" fill="#000000" />
<rect x="1500" y="900" width="300" height="300" fill="#000000" />
<rect x="2100" y="900" width="300" height="300" fill="#000000" />
<rect x="3600" y="900" width="300" height="300" fill="#000000" />
<rect x="3900" y="900" width="300" height="300" fill="#000000" />
<rect x="4200" y="900" width="300" height="300" fill="#000000" />
<rect x="4800" y="900" width="300" height="300" fill="#000000" />
<rect x="5700" y="900" width="300" height="300" fill="#000000" />
<rect x="6000" y="900" width="300" height="300" fill="#000000" />
<rect x="6300" y="900" width="300" height="300" fill="#000000" />
<rect x="7800" y="900" width="300" height="300" fill="#000000" />
<rect x="8400" y="900" width="300" height="300" fill="#000000" />
<rect x="300" y="1200" width="300" height="300" fill="#000000" />
<rect x="1500" y="1200" width="300" height="300" fill="#000000" />
<rect x="2100" y="1200" width="300" height="300" fill="#000000" />
<rect x="3600" y="1200" width="300" height="300" fill="#000000" />
<rect x="4500" y="1200" width="300" height="300" fill="#000000" />
<rect x="4800" y="1200" width="300" height="300" fill="#000000" />
<rect x="5700" y="1200" width="300" height="300" fill="#000000" />
<rect x="6000" y="1200" width="300" height="300" fill="#000000" />
<rect x="7800" y="1200" width="300" height="300" fill="#000000" />
<rect x="8400" y="1200" width="300" height="300" fill="#000000" />
<rect x="300" y="1500" width="300" height="300" fill="#000000" />
<rect x="1500" y="1500" width="300" height="300" fill="#000000" />
<rect x="2100" y="1500" width="300" height="300" fill="#000000" />
<rect x="3000" y="1500" width="300" height="300" fill="#000000" />
<rect x="3600" y="1500" width="300" height="300" fill="#000000" />
<rect x="4800" y="1500" width="300" height="300" fill="#000000" />
<rect x="5700" y="1500" width="300" height="300" fill="#000000" />
<rect x="6000" y="1500" width="300" height="300" fill="#000000" />
<rect x="6300" y="1500" width="300" height="300" fill="#000000" />
<rect x="7800" y="1500" width="300" height="300" fill="#000000" />
<rect x="8400" y="1500" width="300" height="300" fill="#000000" />
<rect x="300" y="1800" width="300" height="300" fill="#000000" />
<rect x="600" y="1800" width="300" height="300" fill="#000000" />
<rect x="900" y="1800" width="300" height="300" fill="#000000" />
<rect x="1200" y="1800" width="300" height="300" fill="#000000" />
<rect x="1500" y="1800" width="300" height="300" fill="#000000" />
<rect x="2100" y="1800" width="300" height="300" fill="#000000" />
<rect x="2400" y="1800" width="300" height="300" fill="#000000" />
<rect x="2700" y="1800" width="300" height="300" fill="#000000" />
<rect x="3000" y="1800" width="300" height="300" fill="#000000" />
<rect x="3600" y="1800" width="300" height="300" fill="#000000" />
<rect x="4800" y="1800" width="300" height="300" fill="#000000" />
<rect x="5100" y="1800" width="300" height="300" fill="#000000" />
<rect x="5700" y="1800" width="300" height="300" fill="#000000" />
<rect x="6300" y="1800" width="300" height="300" fill="#000000" />
<rect x="6600" y="1800" width="300" height="300" fill="#000000" />
<rect x="6900" y="1800" width="300" height="300" fill="#000000" />
<rect x="7200" y="1800" width="300" height="300" fill="#000000" />
<rect x="7800" y="1800" width="300" height="300" fill="#000000" />
<rect x="7800" y="2400" width="300" height="300" fill="#000000" />
<rect x="8400" y="2400" width="300" height="300" fill="#000000" />
<rect x="3000" y="2700" width="300" height="300" fill="#000000" />
<rect x="3300" y="2700" width="300" height="300" fill="#000000" />
<rect x="3600" y="2700" width="300" height="300" fill="#000000" />
<rect x="3900" y="2700" width="300" height="300" fill="#000000" />
<rect x="4200" y="2700" width="300" height="300" fill="#000000" />
<rect x="4500" y="2700" width="300" height="300" fill="#000000" />
<rect x="4800" y="2700" width="300" height="300" fill="#000000" />
<rect x="5100" y="2700" width="300" height="300" fill="#000000" />
<rect x="5400" y="2700" width="300" height="300" fill="#000000" />
<rect x="5700" y="2700" width="300" height="300" fill="#000000" />
<rect x="6000" y="2700" width="300" height="300" fill="#000000" />
<rect x="6300" y="2700" width="300" height="300" fill="#000000" />
<rect x="6600" y="2700" width="300" height="300" fill="#000000" />
<rect x="6900" y="2700" width="300" height="300" fill="#000000" />
<rect x="7200" y="2700" width="300" height="300" fill="#000000" />
<rect x="7500" y="2700" width="300" height="300" fill="#000000" />
<rect x="7800" y="2700" width="300" height="300" fill="#000000" />
<rect x="1800" y="3000" width="300" height="300" fill="#000000" />
<rect x="2100" y="3000" width="300" height="300" fill="#000000" />
<rect x="2400" y="3000" width="300" height="300" fill="#000000" />
<rect x="2700" y="3000" width="300" height="300" fill="#000000" />
<rect x="3000" y="3000" width="300" height="300" fill="#000000" />
<rect x="3300" y="3000" width="300" height="300" fill="#696A6A" />
<rect x="3600" y="3000" width="300" height="300" fill="#696A6A" />
<rect x="3900" y="3000" width="300" height="300" fill="#696A6A" />
<rect x="4200" y="3000" width="300" height="300" fill="#696A6A" />
<rect x="4500" y="3000" width="300" height="300" fill="#696A6A" />
<rect x="4800" y="3000" width="300" height="300" fill="#696A6A" />
<rect x="5100" y="3000" width="300" height="300" fill="#696A6A" />
<rect x="5400" y="3000" width="300" height="300" fill="#696A6A" />
<rect x="5700" y="3000" width="300" height="300" fill="#696A6A" />
<rect x="6000" y="3000" width="300" height="300" fill="#696A6A" />
<rect x="6300" y="3000" width="300" height="300" fill="#696A6A" />
<rect x="6600" y="3000" width="300" height="300" fill="#696A6A" />
<rect x="6900" y="3000" width="300" height="300" fill="#696A6A" />
<rect x="7200" y="3000" width="300" height="300" fill="#696A6A" />
<rect x="7500" y="3000" width="300" height="300" fill="#696A6A" />
<rect x="7800" y="3000" width="300" height="300" fill="#696A6A" />
<rect x="8100" y="3000" width="300" height="300" fill="#000000" />
<rect x="1800" y="3300" width="300" height="300" fill="#000000" />
<rect x="2100" y="3300" width="300" height="300" fill="#696A6A" />
<rect x="2400" y="3300" width="300" height="300" fill="#696A6A" />
<rect x="2700" y="3300" width="300" height="300" fill="#696A6A" />
<rect x="3000" y="3300" width="300" height="300" fill="#696A6A" />
<rect x="3300" y="3300" width="300" height="300" fill="#696A6A" />
<rect x="3600" y="3300" width="300" height="300" fill="#696A6A" />
<rect x="3900" y="3300" width="300" height="300" fill="#696A6A" />
<rect x="4200" y="3300" width="300" height="300" fill="#696A6A" />
<rect x="4500" y="3300" width="300" height="300" fill="#696A6A" />
<rect x="4800" y="3300" width="300" height="300" fill="#696A6A" />
<rect x="5100" y="3300" width="300" height="300" fill="#696A6A" />
<rect x="5400" y="3300" width="300" height="300" fill="#696A6A" />
<rect x="5700" y="3300" width="300" height="300" fill="#696A6A" />
<rect x="6000" y="3300" width="300" height="300" fill="#696A6A" />
<rect x="6300" y="3300" width="300" height="300" fill="#696A6A" />
<rect x="6600" y="3300" width="300" height="300" fill="#696A6A" />
<rect x="6900" y="3300" width="300" height="300" fill="#696A6A" />
<rect x="7200" y="3300" width="300" height="300" fill="#696A6A" />
<rect x="7500" y="3300" width="300" height="300" fill="#696A6A" />
<rect x="7800" y="3300" width="300" height="300" fill="#696A6A" />
<rect x="8100" y="3300" width="300" height="300" fill="#000000" />
<rect x="1800" y="3600" width="300" height="300" fill="#000000" />
<rect x="2100" y="3600" width="300" height="300" fill="#696A6A" />
<rect x="2400" y="3600" width="300" height="300" fill="#000000" />
<rect x="2700" y="3600" width="300" height="300" fill="#000000" />
<rect x="3000" y="3600" width="300" height="300" fill="#000000" />
<rect x="3300" y="3600" width="300" height="300" fill="#000000" />
<rect x="3600" y="3600" width="300" height="300" fill="#000000" />
<rect x="3900" y="3600" width="300" height="300" fill="#000000" />
<rect x="4200" y="3600" width="300" height="300" fill="#000000" />
<rect x="4500" y="3600" width="300" height="300" fill="#000000" />
<rect x="4800" y="3600" width="300" height="300" fill="#000000" />
<rect x="5100" y="3600" width="300" height="300" fill="#000000" />
<rect x="5400" y="3600" width="300" height="300" fill="#000000" />
<rect x="5700" y="3600" width="300" height="300" fill="#000000" />
<rect x="6000" y="3600" width="300" height="300" fill="#000000" />
<rect x="6300" y="3600" width="300" height="300" fill="#000000" />
<rect x="6600" y="3600" width="300" height="300" fill="#000000" />
<rect x="6900" y="3600" width="300" height="300" fill="#000000" />
<rect x="7200" y="3600" width="300" height="300" fill="#000000" />
<rect x="7500" y="3600" width="300" height="300" fill="#000000" />
<rect x="7800" y="3600" width="300" height="300" fill="#696A6A" />
<rect x="8100" y="3600" width="300" height="300" fill="#000000" />
<rect x="1800" y="3900" width="300" height="300" fill="#000000" />
<rect x="2100" y="3900" width="300" height="300" fill="#696A6A" />
<rect x="2400" y="3900" width="300" height="300" fill="#000000" />
<rect x="2700" y="3900" width="300" height="300" fill="#847E87" />
<rect x="3000" y="3900" width="300" height="300" fill="#847E87" />
<rect x="3300" y="3900" width="300" height="300" fill="#847E87" />
<rect x="3600" y="3900" width="300" height="300" fill="#847E87" />
<rect x="3900" y="3900" width="300" height="300" fill="#847E87" />
<rect x="4200" y="3900" width="300" height="300" fill="#847E87" />
<rect x="4500" y="3900" width="300" height="300" fill="#000000" />
<rect x="4800" y="3900" width="300" height="300" fill="#000000" />
<rect x="5100" y="3900" width="300" height="300" fill="#847E87" />
<rect x="5400" y="3900" width="300" height="300" fill="#847E87" />
<rect x="5700" y="3900" width="300" height="300" fill="#847E87" />
<rect x="6000" y="3900" width="300" height="300" fill="#847E87" />
<rect x="6300" y="3900" width="300" height="300" fill="#847E87" />
<rect x="6600" y="3900" width="300" height="300" fill="#847E87" />
<rect x="6900" y="3900" width="300" height="300" fill="#847E87" />
<rect x="7200" y="3900" width="300" height="300" fill="#847E87" />
<rect x="7500" y="3900" width="300" height="300" fill="#000000" />
<rect x="7800" y="3900" width="300" height="300" fill="#696A6A" />
<rect x="8100" y="3900" width="300" height="300" fill="#000000" />
<rect x="1800" y="4200" width="300" height="300" fill="#000000" />
<rect x="2100" y="4200" width="300" height="300" fill="#696A6A" />
<rect x="2400" y="4200" width="300" height="300" fill="#000000" />
<rect x="2700" y="4200" width="300" height="300" fill="#847E87" />
<rect x="3000" y="4200" width="300" height="300" fill="#847E87" />
<rect x="3300" y="4200" width="300" height="300" fill="#847E87" />
<rect x="3600" y="4200" width="300" height="300" fill="#847E87" />
<rect x="3900" y="4200" width="300" height="300" fill="#847E87" />
<rect x="4200" y="4200" width="300" height="300" fill="#847E87" />
<rect x="4500" y="4200" width="300" height="300" fill="#000000" />
<rect x="4800" y="4200" width="300" height="300" fill="#847E87" />
<rect x="5100" y="4200" width="300" height="300" fill="#847E87" />
<rect x="5400" y="4200" width="300" height="300" fill="#847E87" />
<rect x="5700" y="4200" width="300" height="300" fill="#847E87" />
<rect x="6000" y="4200" width="300" height="300" fill="#847E87" />
<rect x="6300" y="4200" width="300" height="300" fill="#847E87" />
<rect x="6600" y="4200" width="300" height="300" fill="#847E87" />
<rect x="6900" y="4200" width="300" height="300" fill="#847E87" />
<rect x="7200" y="4200" width="300" height="300" fill="#847E87" />
<rect x="7500" y="4200" width="300" height="300" fill="#000000" />
<rect x="7800" y="4200" width="300" height="300" fill="#696A6A" />
<rect x="8100" y="4200" width="300" height="300" fill="#000000" />
<rect x="8400" y="4200" width="300" height="300" fill="#000000" />
<rect x="1800" y="4500" width="300" height="300" fill="#000000" />
<rect x="2100" y="4500" width="300" height="300" fill="#696A6A" />
<rect x="2400" y="4500" width="300" height="300" fill="#000000" />
<rect x="2700" y="4500" width="300" height="300" fill="#847E87" />
<rect x="3000" y="4500" width="300" height="300" fill="#847E87" />
<rect x="3300" y="4500" width="300" height="300" fill="#847E87" />
<rect x="3600" y="4500" width="300" height="300" fill="#847E87" />
<rect x="3900" y="4500" width="300" height="300" fill="#847E87" />
<rect x="4200" y="4500" width="300" height="300" fill="#847E87" />
<rect x="4500" y="4500" width="300" height="300" fill="#000000" />
<rect x="4800" y="4500" width="300" height="300" fill="#847E87" />
<rect x="5100" y="4500" width="300" height="300" fill="#847E87" />
<rect x="5400" y="4500" width="300" height="300" fill="#847E87" />
<rect x="5700" y="4500" width="300" height="300" fill="#847E87" />
<rect x="6000" y="4500" width="300" height="300" fill="#847E87" />
<rect x="6300" y="4500" width="300" height="300" fill="#847E87" />
<rect x="6600" y="4500" width="300" height="300" fill="#847E87" />
<rect x="6900" y="4500" width="300" height="300" fill="#847E87" />
<rect x="7200" y="4500" width="300" height="300" fill="#847E87" />
<rect x="7500" y="4500" width="300" height="300" fill="#000000" />
<rect x="7800" y="4500" width="300" height="300" fill="#696A6A" />
<rect x="8100" y="4500" width="300" height="300" fill="#696A6A" />
<rect x="8400" y="4500" width="300" height="300" fill="#000000" />
<rect x="1800" y="4800" width="300" height="300" fill="#000000" />
<rect x="2100" y="4800" width="300" height="300" fill="#696A6A" />
<rect x="2400" y="4800" width="300" height="300" fill="#000000" />
<rect x="2700" y="4800" width="300" height="300" fill="#847E87" />
<rect x="3000" y="4800" width="300" height="300" fill="#847E87" />
<rect x="3300" y="4800" width="300" height="300" fill="#847E87" />
<rect x="3600" y="4800" width="300" height="300" fill="#847E87" />
<rect x="3900" y="4800" width="300" height="300" fill="#847E87" />
<rect x="4200" y="4800" width="300" height="300" fill="#847E87" />
<rect x="4500" y="4800" width="300" height="300" fill="#000000" />
<rect x="4800" y="4800" width="300" height="300" fill="#847E87" />
<rect x="5100" y="4800" width="300" height="300" fill="#847E87" />
<rect x="5400" y="4800" width="300" height="300" fill="#847E87" />
<rect x="5700" y="4800" width="300" height="300" fill="#847E87" />
<rect x="6000" y="4800" width="300" height="300" fill="#847E87" />
<rect x="6300" y="4800" width="300" height="300" fill="#847E87" />
<rect x="6600" y="4800" width="300" height="300" fill="#847E87" />
<rect x="6900" y="4800" width="300" height="300" fill="#847E87" />
<rect x="7200" y="4800" width="300" height="300" fill="#847E87" />
<rect x="7500" y="4800" width="300" height="300" fill="#000000" />
<rect x="7800" y="4800" width="300" height="300" fill="#696A6A" />
<rect x="8100" y="4800" width="300" height="300" fill="#696A6A" />
<rect x="8400" y="4800" width="300" height="300" fill="#000000" />
<rect x="1800" y="5100" width="300" height="300" fill="#000000" />
<rect x="2100" y="5100" width="300" height="300" fill="#696A6A" />
<rect x="2400" y="5100" width="300" height="300" fill="#000000" />
<rect x="2700" y="5100" width="300" height="300" fill="#847E87" />
<rect x="3000" y="5100" width="300" height="300" fill="#847E87" />
<rect x="3300" y="5100" width="300" height="300" fill="#847E87" />
<rect x="3600" y="5100" width="300" height="300" fill="#847E87" />
<rect x="3900" y="5100" width="300" height="300" fill="#847E87" />
<rect x="4200" y="5100" width="300" height="300" fill="#847E87" />
<rect x="4500" y="5100" width="300" height="300" fill="#000000" />
<rect x="4800" y="5100" width="300" height="300" fill="#847E87" />
<rect x="5100" y="5100" width="300" height="300" fill="#847E87" />
<rect x="5400" y="5100" width="300" height="300" fill="#847E87" />
<rect x="5700" y="5100" width="300" height="300" fill="#847E87" />
<rect x="6000" y="5100" width="300" height="300" fill="#847E87" />
<rect x="6300" y="5100" width="300" height="300" fill="#847E87" />
<rect x="6600" y="5100" width="300" height="300" fill="#847E87" />
<rect x="6900" y="5100" width="300" height="300" fill="#847E87" />
<rect x="7200" y="5100" width="300" height="300" fill="#847E87" />
<rect x="7500" y="5100" width="300" height="300" fill="#000000" />
<rect x="7800" y="5100" width="300" height="300" fill="#696A6A" />
<rect x="8100" y="5100" width="300" height="300" fill="#696A6A" />
<rect x="8400" y="5100" width="300" height="300" fill="#000000" />
<rect x="1800" y="5400" width="300" height="300" fill="#000000" />
<rect x="2100" y="5400" width="300" height="300" fill="#696A6A" />
<rect x="2400" y="5400" width="300" height="300" fill="#000000" />
<rect x="2700" y="5400" width="300" height="300" fill="#847E87" />
<rect x="3000" y="5400" width="300" height="300" fill="#847E87" />
<rect x="3300" y="5400" width="300" height="300" fill="#847E87" />
<rect x="3600" y="5400" width="300" height="300" fill="#847E87" />
<rect x="3900" y="5400" width="300" height="300" fill="#847E87" />
<rect x="4200" y="5400" width="300" height="300" fill="#847E87" />
<rect x="4500" y="5400" width="300" height="300" fill="#000000" />
<rect x="4800" y="5400" width="300" height="300" fill="#000000" />
<rect x="5100" y="5400" width="300" height="300" fill="#847E87" />
<rect x="5400" y="5400" width="300" height="300" fill="#847E87" />
<rect x="5700" y="5400" width="300" height="300" fill="#847E87" />
<rect x="6000" y="5400" width="300" height="300" fill="#847E87" />
<rect x="6300" y="5400" width="300" height="300" fill="#847E87" />
<rect x="6600" y="5400" width="300" height="300" fill="#847E87" />
<rect x="6900" y="5400" width="300" height="300" fill="#847E87" />
<rect x="7200" y="5400" width="300" height="300" fill="#847E87" />
<rect x="7500" y="5400" width="300" height="300" fill="#000000" />
<rect x="7800" y="5400" width="300" height="300" fill="#696A6A" />
<rect x="8100" y="5400" width="300" height="300" fill="#696A6A" />
<rect x="8400" y="5400" width="300" height="300" fill="#000000" />
<rect x="1800" y="5700" width="300" height="300" fill="#000000" />
<rect x="2100" y="5700" width="300" height="300" fill="#696A6A" />
<rect x="2400" y="5700" width="300" height="300" fill="#000000" />
<rect x="2700" y="5700" width="300" height="300" fill="#847E87" />
<rect x="3000" y="5700" width="300" height="300" fill="#847E87" />
<rect x="3300" y="5700" width="300" height="300" fill="#847E87" />
<rect x="3600" y="5700" width="300" height="300" fill="#847E87" />
<rect x="3900" y="5700" width="300" height="300" fill="#847E87" />
<rect x="4200" y="5700" width="300" height="300" fill="#847E87" />
<rect x="4500" y="5700" width="300" height="300" fill="#847E87" />
<rect x="4800" y="5700" width="300" height="300" fill="#000000" />
<rect x="5100" y="5700" width="300" height="300" fill="#847E87" />
<rect x="5400" y="5700" width="300" height="300" fill="#847E87" />
<rect x="5700" y="5700" width="300" height="300" fill="#847E87" />
<rect x="6000" y="5700" width="300" height="300" fill="#847E87" />
<rect x="6300" y="5700" width="300" height="300" fill="#847E87" />
<rect x="6600" y="5700" width="300" height="300" fill="#847E87" />
<rect x="6900" y="5700" width="300" height="300" fill="#847E87" />
<rect x="7200" y="5700" width="300" height="300" fill="#847E87" />
<rect x="7500" y="5700" width="300" height="300" fill="#000000" />
<rect x="7800" y="5700" width="300" height="300" fill="#696A6A" />
<rect x="8100" y="5700" width="300" height="300" fill="#696A6A" />
<rect x="8400" y="5700" width="300" height="300" fill="#000000" />
<rect x="1800" y="6000" width="300" height="300" fill="#000000" />
<rect x="2100" y="6000" width="300" height="300" fill="#696A6A" />
<rect x="2400" y="6000" width="300" height="300" fill="#000000" />
<rect x="2700" y="6000" width="300" height="300" fill="#847E87" />
<rect x="3000" y="6000" width="300" height="300" fill="#847E87" />
<rect x="3300" y="6000" width="300" height="300" fill="#847E87" />
<rect x="3600" y="6000" width="300" height="300" fill="#847E87" />
<rect x="3900" y="6000" width="300" height="300" fill="#847E87" />
<rect x="4200" y="6000" width="300" height="300" fill="#847E87" />
<rect x="4500" y="6000" width="300" height="300" fill="#847E87" />
<rect x="4800" y="6000" width="300" height="300" fill="#000000" />
<rect x="5100" y="6000" width="300" height="300" fill="#847E87" />
<rect x="5400" y="6000" width="300" height="300" fill="#847E87" />
<rect x="5700" y="6000" width="300" height="300" fill="#847E87" />
<rect x="6000" y="6000" width="300" height="300" fill="#847E87" />
<rect x="6300" y="6000" width="300" height="300" fill="#847E87" />
<rect x="6600" y="6000" width="300" height="300" fill="#847E87" />
<rect x="6900" y="6000" width="300" height="300" fill="#847E87" />
<rect x="7200" y="6000" width="300" height="300" fill="#847E87" />
<rect x="7500" y="6000" width="300" height="300" fill="#000000" />
<rect x="7800" y="6000" width="300" height="300" fill="#696A6A" />
<rect x="8100" y="6000" width="300" height="300" fill="#696A6A" />
<rect x="8400" y="6000" width="300" height="300" fill="#000000" />
<rect x="1800" y="6300" width="300" height="300" fill="#000000" />
<rect x="2100" y="6300" width="300" height="300" fill="#696A6A" />
<rect x="2400" y="6300" width="300" height="300" fill="#000000" />
<rect x="2700" y="6300" width="300" height="300" fill="#847E87" />
<rect x="3000" y="6300" width="300" height="300" fill="#847E87" />
<rect x="3300" y="6300" width="300" height="300" fill="#847E87" />
<rect x="3600" y="6300" width="300" height="300" fill="#847E87" />
<rect x="3900" y="6300" width="300" height="300" fill="#847E87" />
<rect x="4200" y="6300" width="300" height="300" fill="#847E87" />
<rect x="4500" y="6300" width="300" height="300" fill="#847E87" />
<rect x="4800" y="6300" width="300" height="300" fill="#000000" />
<rect x="5100" y="6300" width="300" height="300" fill="#847E87" />
<rect x="5400" y="6300" width="300" height="300" fill="#847E87" />
<rect x="5700" y="6300" width="300" height="300" fill="#847E87" />
<rect x="6000" y="6300" width="300" height="300" fill="#847E87" />
<rect x="6300" y="6300" width="300" height="300" fill="#847E87" />
<rect x="6600" y="6300" width="300" height="300" fill="#847E87" />
<rect x="6900" y="6300" width="300" height="300" fill="#847E87" />
<rect x="7200" y="6300" width="300" height="300" fill="#847E87" />
<rect x="7500" y="6300" width="300" height="300" fill="#000000" />
<rect x="7800" y="6300" width="300" height="300" fill="#696A6A" />
<rect x="8100" y="6300" width="300" height="300" fill="#696A6A" />
<rect x="8400" y="6300" width="300" height="300" fill="#000000" />
<rect x="1800" y="6600" width="300" height="300" fill="#000000" />
<rect x="2100" y="6600" width="300" height="300" fill="#696A6A" />
<rect x="2400" y="6600" width="300" height="300" fill="#000000" />
<rect x="2700" y="6600" width="300" height="300" fill="#847E87" />
<rect x="3000" y="6600" width="300" height="300" fill="#847E87" />
<rect x="3300" y="6600" width="300" height="300" fill="#847E87" />
<rect x="3600" y="6600" width="300" height="300" fill="#847E87" />
<rect x="3900" y="6600" width="300" height="300" fill="#847E87" />
<rect x="4200" y="6600" width="300" height="300" fill="#847E87" />
<rect x="4500" y="6600" width="300" height="300" fill="#847E87" />
<rect x="4800" y="6600" width="300" height="300" fill="#000000" />
<rect x="5100" y="6600" width="300" height="300" fill="#847E87" />
<rect x="5400" y="6600" width="300" height="300" fill="#847E87" />
<rect x="5700" y="6600" width="300" height="300" fill="#847E87" />
<rect x="6000" y="6600" width="300" height="300" fill="#847E87" />
<rect x="6300" y="6600" width="300" height="300" fill="#847E87" />
<rect x="6600" y="6600" width="300" height="300" fill="#847E87" />
<rect x="6900" y="6600" width="300" height="300" fill="#847E87" />
<rect x="7200" y="6600" width="300" height="300" fill="#847E87" />
<rect x="7500" y="6600" width="300" height="300" fill="#000000" />
<rect x="7800" y="6600" width="300" height="300" fill="#696A6A" />
<rect x="8100" y="6600" width="300" height="300" fill="#696A6A" />
<rect x="8400" y="6600" width="300" height="300" fill="#000000" />
<rect x="1800" y="6900" width="300" height="300" fill="#000000" />
<rect x="2100" y="6900" width="300" height="300" fill="#696A6A" />
<rect x="2400" y="6900" width="300" height="300" fill="#000000" />
<rect x="2700" y="6900" width="300" height="300" fill="#847E87" />
<rect x="3000" y="6900" width="300" height="300" fill="#847E87" />
<rect x="3300" y="6900" width="300" height="300" fill="#847E87" />
<rect x="3600" y="6900" width="300" height="300" fill="#847E87" />
<rect x="3900" y="6900" width="300" height="300" fill="#847E87" />
<rect x="4200" y="6900" width="300" height="300" fill="#847E87" />
<rect x="4500" y="6900" width="300" height="300" fill="#847E87" />
<rect x="4800" y="6900" width="300" height="300" fill="#000000" />
<rect x="5100" y="6900" width="300" height="300" fill="#847E87" />
<rect x="5400" y="6900" width="300" height="300" fill="#847E87" />
<rect x="5700" y="6900" width="300" height="300" fill="#847E87" />
<rect x="6000" y="6900" width="300" height="300" fill="#847E87" />
<rect x="6300" y="6900" width="300" height="300" fill="#847E87" />
<rect x="6600" y="6900" width="300" height="300" fill="#847E87" />
<rect x="6900" y="6900" width="300" height="300" fill="#847E87" />
<rect x="7200" y="6900" width="300" height="300" fill="#847E87" />
<rect x="7500" y="6900" width="300" height="300" fill="#000000" />
<rect x="7800" y="6900" width="300" height="300" fill="#696A6A" />
<rect x="8100" y="6900" width="300" height="300" fill="#696A6A" />
<rect x="8400" y="6900" width="300" height="300" fill="#000000" />
<rect x="1800" y="7200" width="300" height="300" fill="#000000" />
<rect x="2100" y="7200" width="300" height="300" fill="#696A6A" />
<rect x="2400" y="7200" width="300" height="300" fill="#000000" />
<rect x="2700" y="7200" width="300" height="300" fill="#847E87" />
<rect x="3000" y="7200" width="300" height="300" fill="#847E87" />
<rect x="3300" y="7200" width="300" height="300" fill="#847E87" />
<rect x="3600" y="7200" width="300" height="300" fill="#847E87" />
<rect x="3900" y="7200" width="300" height="300" fill="#847E87" />
<rect x="4200" y="7200" width="300" height="300" fill="#847E87" />
<rect x="4500" y="7200" width="300" height="300" fill="#847E87" />
<rect x="4800" y="7200" width="300" height="300" fill="#000000" />
<rect x="5100" y="7200" width="300" height="300" fill="#847E87" />
<rect x="5400" y="7200" width="300" height="300" fill="#847E87" />
<rect x="5700" y="7200" width="300" height="300" fill="#847E87" />
<rect x="6000" y="7200" width="300" height="300" fill="#847E87" />
<rect x="6300" y="7200" width="300" height="300" fill="#847E87" />
<rect x="6600" y="7200" width="300" height="300" fill="#847E87" />
<rect x="6900" y="7200" width="300" height="300" fill="#847E87" />
<rect x="7200" y="7200" width="300" height="300" fill="#847E87" />
<rect x="7500" y="7200" width="300" height="300" fill="#000000" />
<rect x="7800" y="7200" width="300" height="300" fill="#696A6A" />
<rect x="8100" y="7200" width="300" height="300" fill="#696A6A" />
<rect x="8400" y="7200" width="300" height="300" fill="#000000" />
<rect x="1800" y="7500" width="300" height="300" fill="#000000" />
<rect x="2100" y="7500" width="300" height="300" fill="#696A6A" />
<rect x="2400" y="7500" width="300" height="300" fill="#000000" />
<rect x="2700" y="7500" width="300" height="300" fill="#847E87" />
<rect x="3000" y="7500" width="300" height="300" fill="#847E87" />
<rect x="3300" y="7500" width="300" height="300" fill="#847E87" />
<rect x="3600" y="7500" width="300" height="300" fill="#847E87" />
<rect x="3900" y="7500" width="300" height="300" fill="#847E87" />
<rect x="4200" y="7500" width="300" height="300" fill="#847E87" />
<rect x="4500" y="7500" width="300" height="300" fill="#847E87" />
<rect x="4800" y="7500" width="300" height="300" fill="#000000" />
<rect x="5100" y="7500" width="300" height="300" fill="#847E87" />
<rect x="5400" y="7500" width="300" height="300" fill="#847E87" />
<rect x="5700" y="7500" width="300" height="300" fill="#847E87" />
<rect x="6000" y="7500" width="300" height="300" fill="#847E87" />
<rect x="6300" y="7500" width="300" height="300" fill="#847E87" />
<rect x="6600" y="7500" width="300" height="300" fill="#847E87" />
<rect x="6900" y="7500" width="300" height="300" fill="#847E87" />
<rect x="7200" y="7500" width="300" height="300" fill="#847E87" />
<rect x="7500" y="7500" width="300" height="300" fill="#000000" />
<rect x="7800" y="7500" width="300" height="300" fill="#696A6A" />
<rect x="8100" y="7500" width="300" height="300" fill="#696A6A" />
<rect x="8400" y="7500" width="300" height="300" fill="#000000" />
<rect x="1800" y="7800" width="300" height="300" fill="#000000" />
<rect x="2100" y="7800" width="300" height="300" fill="#696A6A" />
<rect x="2400" y="7800" width="300" height="300" fill="#000000" />
<rect x="2700" y="7800" width="300" height="300" fill="#847E87" />
<rect x="3000" y="7800" width="300" height="300" fill="#847E87" />
<rect x="3300" y="7800" width="300" height="300" fill="#847E87" />
<rect x="3600" y="7800" width="300" height="300" fill="#847E87" />
<rect x="3900" y="7800" width="300" height="300" fill="#847E87" />
<rect x="4200" y="7800" width="300" height="300" fill="#847E87" />
<rect x="4500" y="7800" width="300" height="300" fill="#847E87" />
<rect x="4800" y="7800" width="300" height="300" fill="#000000" />
<rect x="5100" y="7800" width="300" height="300" fill="#847E87" />
<rect x="5400" y="7800" width="300" height="300" fill="#847E87" />
<rect x="5700" y="7800" width="300" height="300" fill="#847E87" />
<rect x="6000" y="7800" width="300" height="300" fill="#847E87" />
<rect x="6300" y="7800" width="300" height="300" fill="#847E87" />
<rect x="6600" y="7800" width="300" height="300" fill="#847E87" />
<rect x="6900" y="7800" width="300" height="300" fill="#847E87" />
<rect x="7200" y="7800" width="300" height="300" fill="#847E87" />
<rect x="7500" y="7800" width="300" height="300" fill="#000000" />
<rect x="7800" y="7800" width="300" height="300" fill="#696A6A" />
<rect x="8100" y="7800" width="300" height="300" fill="#696A6A" />
<rect x="8400" y="7800" width="300" height="300" fill="#000000" />
<rect x="1800" y="8100" width="300" height="300" fill="#000000" />
<rect x="2100" y="8100" width="300" height="300" fill="#696A6A" />
<rect x="2400" y="8100" width="300" height="300" fill="#000000" />
<rect x="2700" y="8100" width="300" height="300" fill="#847E87" />
<rect x="3000" y="8100" width="300" height="300" fill="#847E87" />
<rect x="3300" y="8100" width="300" height="300" fill="#847E87" />
<rect x="3600" y="8100" width="300" height="300" fill="#847E87" />
<rect x="3900" y="8100" width="300" height="300" fill="#847E87" />
<rect x="4200" y="8100" width="300" height="300" fill="#847E87" />
<rect x="4500" y="8100" width="300" height="300" fill="#847E87" />
<rect x="4800" y="8100" width="300" height="300" fill="#000000" />
<rect x="5100" y="8100" width="300" height="300" fill="#847E87" />
<rect x="5400" y="8100" width="300" height="300" fill="#847E87" />
<rect x="5700" y="8100" width="300" height="300" fill="#847E87" />
<rect x="6000" y="8100" width="300" height="300" fill="#847E87" />
<rect x="6300" y="8100" width="300" height="300" fill="#847E87" />
<rect x="6600" y="8100" width="300" height="300" fill="#847E87" />
<rect x="6900" y="8100" width="300" height="300" fill="#847E87" />
<rect x="7200" y="8100" width="300" height="300" fill="#847E87" />
<rect x="7500" y="8100" width="300" height="300" fill="#000000" />
<rect x="7800" y="8100" width="300" height="300" fill="#696A6A" />
<rect x="8100" y="8100" width="300" height="300" fill="#696A6A" />
<rect x="8400" y="8100" width="300" height="300" fill="#000000" />
<rect x="1800" y="8400" width="300" height="300" fill="#000000" />
<rect x="2100" y="8400" width="300" height="300" fill="#696A6A" />
<rect x="2400" y="8400" width="300" height="300" fill="#000000" />
<rect x="2700" y="8400" width="300" height="300" fill="#847E87" />
<rect x="3000" y="8400" width="300" height="300" fill="#847E87" />
<rect x="3300" y="8400" width="300" height="300" fill="#847E87" />
<rect x="3600" y="8400" width="300" height="300" fill="#847E87" />
<rect x="3900" y="8400" width="300" height="300" fill="#847E87" />
<rect x="4200" y="8400" width="300" height="300" fill="#847E87" />
<rect x="4500" y="8400" width="300" height="300" fill="#847E87" />
<rect x="4800" y="8400" width="300" height="300" fill="#000000" />
<rect x="5100" y="8400" width="300" height="300" fill="#847E87" />
<rect x="5400" y="8400" width="300" height="300" fill="#847E87" />
<rect x="5700" y="8400" width="300" height="300" fill="#847E87" />
<rect x="6000" y="8400" width="300" height="300" fill="#847E87" />
<rect x="6300" y="8400" width="300" height="300" fill="#847E87" />
<rect x="6600" y="8400" width="300" height="300" fill="#847E87" />
<rect x="6900" y="8400" width="300" height="300" fill="#847E87" />
<rect x="7200" y="8400" width="300" height="300" fill="#847E87" />
<rect x="7500" y="8400" width="300" height="300" fill="#000000" />
<rect x="7800" y="8400" width="300" height="300" fill="#696A6A" />
<rect x="8100" y="8400" width="300" height="300" fill="#696A6A" />
<rect x="8400" y="8400" width="300" height="300" fill="#000000" />
<rect x="1800" y="8700" width="300" height="300" fill="#000000" />
<rect x="2100" y="8700" width="300" height="300" fill="#696A6A" />
<rect x="2400" y="8700" width="300" height="300" fill="#000000" />
<rect x="2700" y="8700" width="300" height="300" fill="#847E87" />
<rect x="3000" y="8700" width="300" height="300" fill="#847E87" />
<rect x="3300" y="8700" width="300" height="300" fill="#847E87" />
<rect x="3600" y="8700" width="300" height="300" fill="#847E87" />
<rect x="3900" y="8700" width="300" height="300" fill="#847E87" />
<rect x="4200" y="8700" width="300" height="300" fill="#847E87" />
<rect x="4500" y="8700" width="300" height="300" fill="#847E87" />
<rect x="4800" y="8700" width="300" height="300" fill="#000000" />
<rect x="5100" y="8700" width="300" height="300" fill="#847E87" />
<rect x="5400" y="8700" width="300" height="300" fill="#847E87" />
<rect x="5700" y="8700" width="300" height="300" fill="#847E87" />
<rect x="6000" y="8700" width="300" height="300" fill="#847E87" />
<rect x="6300" y="8700" width="300" height="300" fill="#847E87" />
<rect x="6600" y="8700" width="300" height="300" fill="#847E87" />
<rect x="6900" y="8700" width="300" height="300" fill="#847E87" />
<rect x="7200" y="8700" width="300" height="300" fill="#847E87" />
<rect x="7500" y="8700" width="300" height="300" fill="#000000" />
<rect x="7800" y="8700" width="300" height="300" fill="#000000" />
<rect x="8100" y="8700" width="300" height="300" fill="#696A6A" />
<rect x="8400" y="8700" width="300" height="300" fill="#000000" />
<rect x="1800" y="9000" width="300" height="300" fill="#000000" />
<rect x="2100" y="9000" width="300" height="300" fill="#696A6A" />
<rect x="2400" y="9000" width="300" height="300" fill="#000000" />
<rect x="2700" y="9000" width="300" height="300" fill="#847E87" />
<rect x="3000" y="9000" width="300" height="300" fill="#847E87" />
<rect x="3300" y="9000" width="300" height="300" fill="#847E87" />
<rect x="3600" y="9000" width="300" height="300" fill="#847E87" />
<rect x="3900" y="9000" width="300" height="300" fill="#847E87" />
<rect x="4200" y="9000" width="300" height="300" fill="#847E87" />
<rect x="4500" y="9000" width="300" height="300" fill="#847E87" />
<rect x="4800" y="9000" width="300" height="300" fill="#000000" />
<rect x="5100" y="9000" width="300" height="300" fill="#847E87" />
<rect x="5400" y="9000" width="300" height="300" fill="#847E87" />
<rect x="5700" y="9000" width="300" height="300" fill="#847E87" />
<rect x="6000" y="9000" width="300" height="300" fill="#847E87" />
<rect x="6300" y="9000" width="300" height="300" fill="#847E87" />
<rect x="6600" y="9000" width="300" height="300" fill="#847E87" />
<rect x="6900" y="9000" width="300" height="300" fill="#847E87" />
<rect x="7200" y="9000" width="300" height="300" fill="#847E87" />
<rect x="7500" y="9000" width="300" height="300" fill="#000000" />
<rect x="7800" y="9000" width="300" height="300" fill="#000000" />
<rect x="8100" y="9000" width="300" height="300" fill="#696A6A" />
<rect x="8400" y="9000" width="300" height="300" fill="#000000" />
<rect x="1800" y="9300" width="300" height="300" fill="#000000" />
<rect x="2100" y="9300" width="300" height="300" fill="#000000" />
<rect x="2400" y="9300" width="300" height="300" fill="#000000" />
<rect x="2700" y="9300" width="300" height="300" fill="#000000" />
<rect x="3000" y="9300" width="300" height="300" fill="#000000" />
<rect x="3300" y="9300" width="300" height="300" fill="#000000" />
<rect x="3600" y="9300" width="300" height="300" fill="#000000" />
<rect x="3900" y="9300" width="300" height="300" fill="#000000" />
<rect x="4200" y="9300" width="300" height="300" fill="#000000" />
<rect x="4500" y="9300" width="300" height="300" fill="#000000" />
<rect x="4800" y="9300" width="300" height="300" fill="#000000" />
<rect x="5100" y="9300" width="300" height="300" fill="#000000" />
<rect x="5400" y="9300" width="300" height="300" fill="#000000" />
<rect x="5700" y="9300" width="300" height="300" fill="#000000" />
<rect x="6000" y="9300" width="300" height="300" fill="#000000" />
<rect x="6300" y="9300" width="300" height="300" fill="#000000" />
<rect x="6600" y="9300" width="300" height="300" fill="#000000" />
<rect x="6900" y="9300" width="300" height="300" fill="#000000" />
<rect x="7200" y="9300" width="300" height="300" fill="#000000" />
<rect x="7500" y="9300" width="300" height="300" fill="#000000" />
<rect x="7800" y="9300" width="300" height="300" fill="#000000" />
<rect x="8100" y="9300" width="300" height="300" fill="#000000" />
<rect x="8400" y="9300" width="300" height="300" fill="#000000" />
</svg>